<?xml version="1.0" encoding="utf-8"?>
<svg viewBox="0 0 278 113" xmlns="http://www.w3.org/2000/svg">
  <circle cx="8" cy="21" fill="none" r="2" stroke="#000" stroke-linecap="round" stroke-linejoin="round" stroke-width="2" transform="matrix(4.152278, 0, 0, 4.534128, 177.685257, -0.707035)" style=""/>
  <circle cx="20" cy="21" fill="none" r="2" stroke="#000" stroke-linecap="round" stroke-linejoin="round" stroke-width="2" transform="matrix(4.152278, 0, 0, 4.534128, 177.685257, -0.707035)" style=""/>
  <path d="M 201.23 26.498 L 273.189 26.498 L 266.213 64.539 C 265.429 68.848 261.93 71.923 257.908 71.838 L 214.019 71.838 C 209.823 71.878 206.26 68.493 205.714 63.95 L 199.403 11.717 C 198.861 7.208 195.346 3.834 191.181 3.827 L 181.839 3.827" fill="none" stroke="#000" stroke-linecap="round" stroke-linejoin="round" stroke-width="2" style=""/>
  <path d="M 359.724 173.243 C 359.724 176.543 360.431 179.396 361.844 181.803 C 363.251 184.21 365.241 186.056 367.814 187.343 C 370.381 188.623 373.341 189.263 376.694 189.263 C 378.834 189.263 381.104 188.853 383.504 188.033 C 385.911 187.22 387.771 186.093 389.084 184.653 C 389.537 184.153 389.764 183.626 389.764 183.073 C 389.764 182.54 389.637 182.15 389.384 181.903 C 389.131 181.65 388.814 181.523 388.434 181.523 C 387.834 181.523 387.321 181.723 386.894 182.123 C 385.327 183.563 383.764 184.596 382.204 185.223 C 380.644 185.85 378.704 186.163 376.384 186.163 C 372.404 186.163 369.237 185.076 366.884 182.903 C 364.531 180.723 363.354 177.503 363.354 173.243 C 363.354 170.703 363.907 168.52 365.014 166.693 C 366.121 164.866 367.727 163.463 369.834 162.483 C 371.934 161.496 374.447 161.003 377.374 161.003 C 378.734 161.003 380.037 161.13 381.284 161.383 C 382.531 161.636 383.781 162.076 385.034 162.703 L 385.224 164.253 C 385.477 166.473 385.744 168.043 386.024 168.963 C 386.297 169.883 386.801 170.343 387.534 170.343 C 388.261 170.343 388.821 170.063 389.214 169.503 C 389.601 168.95 389.794 168.22 389.794 167.313 C 389.794 164.066 388.624 161.686 386.284 160.173 C 383.944 158.666 380.784 157.913 376.804 157.913 C 373.657 157.913 370.787 158.53 368.194 159.763 C 365.594 160.996 363.534 162.77 362.014 165.083 C 360.487 167.403 359.724 170.123 359.724 173.243 ZM 430.406 170.113 L 430.406 170.863 L 427.646 171.053 C 423.546 171.333 420.28 171.686 417.846 172.113 C 415.413 172.54 413.366 173.423 411.706 174.763 C 410.046 176.096 409.216 178.073 409.216 180.693 C 409.216 183.286 410.01 185.356 411.596 186.903 C 413.183 188.45 415.386 189.223 418.206 189.223 C 420.826 189.223 423.25 188.76 425.476 187.833 C 427.703 186.9 429.436 185.74 430.676 184.353 C 430.976 186.14 431.566 187.343 432.446 187.963 C 433.326 188.576 434.41 188.883 435.696 188.883 C 436.83 188.883 437.92 188.64 438.966 188.153 C 440.013 187.66 440.936 186.986 441.736 186.133 C 441.99 185.88 442.116 185.563 442.116 185.183 C 442.116 184.783 441.98 184.42 441.706 184.093 C 441.426 183.766 441.096 183.603 440.716 183.603 C 440.39 183.603 440.09 183.753 439.816 184.053 C 439.39 184.506 438.81 184.926 438.076 185.313 C 437.343 185.706 436.65 185.903 435.996 185.903 C 435.396 185.903 434.92 185.746 434.566 185.433 C 434.213 185.12 434.036 184.52 434.036 183.633 L 434.036 171.853 C 434.036 168.78 433.71 166.23 433.056 164.203 C 432.396 162.176 431.243 160.62 429.596 159.533 C 427.943 158.453 425.67 157.913 422.776 157.913 C 420.21 157.913 417.93 158.253 415.936 158.933 C 413.95 159.613 412.403 160.556 411.296 161.763 C 410.183 162.97 409.626 164.33 409.626 165.843 C 409.626 166.65 409.823 167.303 410.216 167.803 C 410.603 168.31 411.163 168.563 411.896 168.563 C 412.75 168.563 413.353 168.073 413.706 167.093 C 414.06 166.106 414.286 164.643 414.386 162.703 C 415.726 162.103 417.056 161.67 418.376 161.403 C 419.696 161.136 421.15 161.003 422.736 161.003 C 425.556 161.003 427.54 161.786 428.686 163.353 C 429.833 164.913 430.406 167.166 430.406 170.113 Z M 430.406 181.483 C 429.046 182.916 427.303 184.056 425.176 184.903 C 423.05 185.743 420.863 186.163 418.616 186.163 C 416.883 186.163 415.493 185.73 414.446 184.863 C 413.4 183.996 412.876 182.606 412.876 180.693 C 412.876 178.926 413.483 177.59 414.696 176.683 C 415.903 175.776 417.533 175.14 419.586 174.773 C 421.64 174.413 424.73 174.03 428.856 173.623 L 430.406 173.473 L 430.406 181.483 ZM 481.259 165.543 C 481.259 166.17 481.432 166.653 481.779 166.993 C 482.132 167.333 482.549 167.503 483.029 167.503 C 483.535 167.503 483.969 167.32 484.329 166.953 C 484.695 166.593 484.879 166.073 484.879 165.393 L 484.879 160.173 C 484.879 159.42 484.629 158.853 484.129 158.473 C 483.622 158.1 482.765 157.913 481.559 157.913 C 474.559 157.913 469.622 160.116 466.749 164.523 L 466.599 160.593 C 466.572 159.886 466.465 159.356 466.279 159.003 C 466.085 158.65 465.712 158.473 465.159 158.473 C 464.905 158.473 464.615 158.513 464.289 158.593 L 457.829 159.873 C 457.475 159.946 457.199 160.116 456.999 160.383 C 456.799 160.65 456.699 160.96 456.699 161.313 C 456.699 161.713 456.832 162.063 457.099 162.363 C 457.359 162.67 457.729 162.823 458.209 162.823 C 458.409 162.823 458.559 162.81 458.659 162.783 L 463.269 161.843 L 463.269 185.523 L 456.359 185.523 C 455.852 185.523 455.462 185.676 455.189 185.983 C 454.909 186.283 454.769 186.633 454.769 187.033 C 454.769 187.466 454.922 187.84 455.229 188.153 C 455.529 188.466 455.955 188.623 456.509 188.623 L 479.559 188.623 C 480.032 188.623 480.409 188.466 480.689 188.153 C 480.962 187.84 481.099 187.48 481.099 187.073 C 481.099 186.646 480.969 186.283 480.709 185.983 C 480.442 185.676 480.069 185.523 479.589 185.523 L 466.899 185.523 L 466.899 168.753 C 467.905 166.233 469.705 164.313 472.299 162.993 C 474.892 161.666 477.879 161.003 481.259 161.003 L 481.259 165.543 ZM 512.421 162.483 L 526.431 162.483 C 526.911 162.483 527.284 162.33 527.551 162.023 C 527.811 161.723 527.941 161.36 527.941 160.933 C 527.941 160.526 527.811 160.166 527.551 159.853 C 527.284 159.54 526.924 159.383 526.471 159.383 L 512.421 159.383 L 512.421 150.353 C 512.421 149.8 512.331 149.38 512.151 149.093 C 511.978 148.8 511.614 148.653 511.061 148.653 C 510.328 148.653 509.804 148.973 509.491 149.613 C 509.178 150.26 508.981 151.263 508.901 152.623 C 508.828 153.983 508.791 156.236 508.791 159.383 L 503.241 159.383 C 502.734 159.383 502.344 159.526 502.071 159.813 C 501.791 160.106 501.651 160.453 501.651 160.853 C 501.651 161.286 501.801 161.666 502.101 161.993 C 502.408 162.32 502.838 162.483 503.391 162.483 L 508.791 162.483 L 508.791 182.243 C 508.791 183.476 509.238 184.633 510.131 185.713 C 511.024 186.8 512.221 187.663 513.721 188.303 C 515.221 188.943 516.828 189.263 518.541 189.263 C 520.228 189.263 521.928 189.07 523.641 188.683 C 525.354 188.29 526.858 187.786 528.151 187.173 C 529.451 186.553 530.364 185.93 530.891 185.303 C 531.018 185.123 531.081 184.933 531.081 184.733 C 531.081 184.306 530.904 183.876 530.551 183.443 C 530.198 183.016 529.844 182.803 529.491 182.803 C 529.318 182.803 529.181 182.853 529.081 182.953 C 527.868 183.86 526.311 184.623 524.411 185.243 C 522.511 185.856 520.681 186.163 518.921 186.163 C 516.981 186.163 515.411 185.743 514.211 184.903 C 513.018 184.056 512.421 182.726 512.421 180.913 L 512.421 162.483 Z" transform="matrix(0.9873250722885132, 0, 0, 0.9564530253410339, -348.4822692871094, -105.57435607910156)" style="fill: rgb(51, 51, 51); white-space: pre;"/>
</svg>