<?xml version="1.0" encoding="utf-8"?>
<svg viewBox="0 0 96 81" xmlns="http://www.w3.org/2000/svg">
  <g id="Layer_2" transform="matrix(1.874293, 0, 0, 2.032893, 16.92658, -8.609967)" style="">
    <path d="M21.77,25.87a23.08,23.08,0,0,1-6-.9A19.28,19.28,0,0,0,8,24.26a30.44,30.44,0,0,0-3.8.71,1,1,0,0,1-.86-.18A1,1,0,0,1,3,24V8a1,1,0,0,1,.76-1A29.7,29.7,0,0,1,8.2,6.24a21,21,0,0,1,8,.79,19.35,19.35,0,0,0,7.41.73A28.18,28.18,0,0,0,27.76,7a1,1,0,0,1,.86.18A1,1,0,0,1,29,8V24a1,1,0,0,1-.76,1,30.63,30.63,0,0,1-4.06.75A21.17,21.17,0,0,1,21.77,25.87ZM10.23,22.13a23.08,23.08,0,0,1,6,.9,19.28,19.28,0,0,0,7.72.71,26.29,26.29,0,0,0,3-.53V9.26a27.89,27.89,0,0,1-3.15.49A21.15,21.15,0,0,1,15.75,9a19.28,19.28,0,0,0-7.36-.74A25.91,25.91,0,0,0,5,8.79v14a28,28,0,0,1,2.82-.46A21.17,21.17,0,0,1,10.23,22.13Z"/>
    <path d="M4.37,13l-.45,0A1,1,0,0,1,3,12V8a1,1,0,0,1,.76-1A29.7,29.7,0,0,1,8.2,6.24,1,1,0,0,1,9.27,7a4.61,4.61,0,0,1,.1,1A5,5,0,0,1,4.37,13ZM5,8.79v2.14A3,3,0,0,0,7.35,8.35C6.62,8.46,5.84,8.6,5,8.79Z"/>
    <path d="M27.68,13A5,5,0,0,1,22.77,9,1,1,0,0,1,23,8.16a1,1,0,0,1,.7-.4A28.18,28.18,0,0,0,27.76,7a1,1,0,0,1,.86.18A1,1,0,0,1,29,8v4a1,1,0,0,1-.83,1A2,2,0,0,1,27.68,13ZM25.14,9.6A3,3,0,0,0,27,10.92V9.26C26.36,9.39,25.74,9.51,25.14,9.6Z"/>
    <path d="M4,25a1,1,0,0,1-1-1V20a1,1,0,0,1,1-1,5,5,0,0,1,4.91,4.09,1,1,0,0,1-.18.78,1,1,0,0,1-.69.39,30.44,30.44,0,0,0-3.8.71A1,1,0,0,1,4,25Zm1-3.83v1.57c.54-.11,1.06-.21,1.57-.29A3,3,0,0,0,5,21.17Z"/>
    <path d="M24.07,25.73a1,1,0,0,1-1-.78A4.72,4.72,0,0,1,23,24a5,5,0,0,1,5-5,1,1,0,0,1,1,1v4a1,1,0,0,1-.76,1,30.63,30.63,0,0,1-4.06.75ZM27,21.17a3,3,0,0,0-2,2.42c.63-.1,1.29-.22,2-.38Z"/>
    <path d="M17.5,20H14a1,1,0,0,1,0-2h3.5a.5.5,0,0,0,0-1h-3a2.5,2.5,0,0,1,0-5H18a1,1,0,0,1,0,2H14.5a.5.5,0,0,0,0,1h3a2.5,2.5,0,0,1,0,5Z"/>
    <path d="M16,14a1,1,0,0,1-1-1V12a1,1,0,0,1,2,0v1A1,1,0,0,1,16,14Z"/>
    <path d="M16,21a1,1,0,0,1-1-1V19a1,1,0,0,1,2,0v1A1,1,0,0,1,16,21Z"/>
  </g>
  <g id="frame" transform="matrix(1.666338, 0, 0, 1.796511, 19.215399, -6.337881)" style="">
    <rect class="cls-1" height="32" width="32" style="fill: none;"/>
  </g>
  <path d="M 220.77 170.283 C 220.77 171.176 220.96 171.95 221.34 172.603 C 221.72 173.256 222.26 173.756 222.96 174.103 C 223.66 174.45 224.463 174.623 225.37 174.623 C 225.95 174.623 226.567 174.513 227.22 174.293 C 227.873 174.073 228.377 173.766 228.73 173.373 C 228.857 173.24 228.92 173.096 228.92 172.943 C 228.92 172.803 228.887 172.696 228.82 172.623 C 228.747 172.556 228.66 172.523 228.56 172.523 C 228.393 172.523 228.253 172.58 228.14 172.693 C 227.713 173.08 227.29 173.36 226.87 173.533 C 226.443 173.7 225.917 173.783 225.29 173.783 C 224.21 173.783 223.35 173.49 222.71 172.903 C 222.07 172.31 221.75 171.436 221.75 170.283 C 221.75 169.59 221.9 168.996 222.2 168.503 C 222.5 168.003 222.937 167.62 223.51 167.353 C 224.083 167.086 224.767 166.953 225.56 166.953 C 225.927 166.953 226.28 166.99 226.62 167.063 C 226.953 167.13 227.293 167.25 227.64 167.423 L 227.69 167.843 C 227.757 168.443 227.827 168.866 227.9 169.113 C 227.98 169.366 228.117 169.493 228.31 169.493 C 228.51 169.493 228.663 169.416 228.77 169.263 C 228.877 169.116 228.93 168.92 228.93 168.673 C 228.93 167.786 228.61 167.14 227.97 166.733 C 227.337 166.32 226.48 166.113 225.4 166.113 C 224.547 166.113 223.767 166.283 223.06 166.623 C 222.36 166.956 221.803 167.436 221.39 168.063 C 220.977 168.696 220.77 169.436 220.77 170.283 ZM 239.952 169.433 L 239.952 169.633 L 239.202 169.683 C 238.089 169.756 237.202 169.853 236.542 169.973 C 235.882 170.086 235.326 170.326 234.872 170.693 C 234.419 171.053 234.192 171.59 234.192 172.303 C 234.192 173.003 234.409 173.563 234.842 173.983 C 235.276 174.403 235.872 174.613 236.632 174.613 C 237.346 174.613 238.006 174.486 238.612 174.233 C 239.219 173.986 239.689 173.673 240.022 173.293 C 240.102 173.78 240.262 174.106 240.502 174.273 C 240.742 174.44 241.036 174.523 241.382 174.523 C 241.689 174.523 241.986 174.456 242.272 174.323 C 242.552 174.19 242.802 174.006 243.022 173.773 C 243.096 173.706 243.132 173.623 243.132 173.523 C 243.132 173.41 243.092 173.31 243.012 173.223 C 242.939 173.136 242.852 173.093 242.752 173.093 C 242.659 173.093 242.576 173.133 242.502 173.213 C 242.389 173.333 242.232 173.446 242.032 173.553 C 241.832 173.66 241.642 173.713 241.462 173.713 C 241.302 173.713 241.172 173.67 241.072 173.583 C 240.979 173.503 240.932 173.343 240.932 173.103 L 240.932 169.903 C 240.932 169.07 240.842 168.376 240.662 167.823 C 240.489 167.276 240.179 166.853 239.732 166.553 C 239.279 166.26 238.662 166.113 237.882 166.113 C 237.182 166.113 236.562 166.206 236.022 166.393 C 235.482 166.58 235.062 166.836 234.762 167.163 C 234.462 167.49 234.312 167.86 234.312 168.273 C 234.312 168.493 234.366 168.67 234.472 168.803 C 234.572 168.943 234.722 169.013 234.922 169.013 C 235.156 169.013 235.319 168.88 235.412 168.613 C 235.512 168.346 235.576 167.95 235.602 167.423 C 235.962 167.256 236.322 167.136 236.682 167.063 C 237.042 166.99 237.439 166.953 237.872 166.953 C 238.632 166.953 239.169 167.166 239.482 167.593 C 239.796 168.02 239.952 168.633 239.952 169.433 Z M 239.952 172.513 C 239.579 172.906 239.106 173.216 238.532 173.443 C 237.952 173.67 237.359 173.783 236.752 173.783 C 236.279 173.783 235.899 173.666 235.612 173.433 C 235.332 173.2 235.192 172.823 235.192 172.303 C 235.192 171.823 235.356 171.46 235.682 171.213 C 236.009 170.966 236.452 170.793 237.012 170.693 C 237.566 170.593 238.406 170.49 239.532 170.383 L 239.952 170.343 L 239.952 172.513 ZM 247.255 168.443 C 247.255 169.016 247.445 169.466 247.825 169.793 C 248.198 170.126 248.728 170.356 249.415 170.483 L 252.135 171.013 C 252.575 171.1 252.888 171.25 253.075 171.463 C 253.255 171.676 253.345 171.96 253.345 172.313 C 253.345 172.813 253.138 173.183 252.725 173.423 C 252.312 173.663 251.715 173.783 250.935 173.783 C 250.355 173.783 249.825 173.696 249.345 173.523 C 248.872 173.343 248.495 173.096 248.215 172.783 C 247.942 172.47 247.805 172.12 247.805 171.733 C 247.805 171.513 247.772 171.37 247.705 171.303 C 247.638 171.236 247.548 171.203 247.435 171.203 C 247.335 171.203 247.248 171.246 247.175 171.333 C 247.102 171.426 247.065 171.56 247.065 171.733 L 247.045 174.053 C 247.045 174.166 247.085 174.263 247.165 174.343 C 247.245 174.416 247.342 174.453 247.455 174.453 C 247.555 174.453 247.642 174.416 247.715 174.343 C 247.788 174.27 247.825 174.163 247.825 174.023 L 247.825 173.403 C 248.198 173.836 248.662 174.15 249.215 174.343 C 249.762 174.53 250.358 174.623 251.005 174.623 C 252.018 174.623 252.828 174.43 253.435 174.043 C 254.042 173.663 254.345 173.09 254.345 172.323 C 254.345 171.616 254.165 171.093 253.805 170.753 C 253.445 170.413 252.935 170.176 252.275 170.043 L 249.615 169.513 C 249.128 169.4 248.792 169.246 248.605 169.053 C 248.412 168.86 248.315 168.606 248.315 168.293 C 248.315 167.4 249.038 166.953 250.485 166.953 C 251.232 166.953 251.862 167.06 252.375 167.273 C 252.895 167.486 253.248 167.81 253.435 168.243 C 253.442 168.563 253.468 168.786 253.515 168.913 C 253.562 169.046 253.672 169.113 253.845 169.113 C 253.978 169.113 254.075 169.083 254.135 169.023 C 254.202 168.956 254.242 168.86 254.255 168.733 L 254.275 166.673 C 254.275 166.513 254.232 166.39 254.145 166.303 C 254.065 166.21 253.968 166.163 253.855 166.163 C 253.735 166.163 253.632 166.21 253.545 166.303 C 253.458 166.396 253.418 166.523 253.425 166.683 L 253.425 167.063 C 253.218 166.796 252.838 166.573 252.285 166.393 C 251.732 166.206 251.155 166.113 250.555 166.113 C 249.622 166.113 248.838 166.293 248.205 166.653 C 247.572 167.006 247.255 167.603 247.255 168.443 ZM 266.217 168.913 L 266.217 173.613 L 264.717 173.613 C 264.584 173.613 264.477 173.653 264.397 173.733 C 264.324 173.813 264.287 173.906 264.287 174.013 C 264.287 174.126 264.327 174.23 264.407 174.323 C 264.494 174.41 264.611 174.453 264.757 174.453 L 268.297 174.453 C 268.431 174.453 268.537 174.41 268.617 174.323 C 268.691 174.236 268.727 174.136 268.727 174.023 C 268.727 173.916 268.691 173.82 268.617 173.733 C 268.544 173.653 268.444 173.613 268.317 173.613 L 267.197 173.613 L 267.197 168.983 C 267.197 168.07 266.957 167.363 266.477 166.863 C 266.004 166.363 265.284 166.113 264.317 166.113 C 263.857 166.113 263.411 166.193 262.977 166.353 C 262.544 166.513 262.164 166.726 261.837 166.993 C 261.511 167.266 261.261 167.57 261.087 167.903 L 261.087 162.753 C 261.087 162.486 260.947 162.353 260.667 162.353 C 260.641 162.353 260.574 162.36 260.467 162.373 L 258.527 162.573 C 258.414 162.58 258.331 162.626 258.277 162.713 C 258.217 162.8 258.187 162.893 258.187 162.993 C 258.187 163.1 258.224 163.19 258.297 163.263 C 258.371 163.336 258.467 163.37 258.587 163.363 L 260.107 163.263 L 260.107 173.613 L 258.997 173.613 C 258.857 173.613 258.751 173.653 258.677 173.733 C 258.604 173.813 258.567 173.906 258.567 174.013 C 258.567 174.126 258.607 174.23 258.687 174.323 C 258.767 174.41 258.884 174.453 259.037 174.453 L 262.147 174.453 C 262.301 174.453 262.424 174.41 262.517 174.323 C 262.611 174.236 262.657 174.136 262.657 174.023 C 262.657 173.916 262.614 173.82 262.527 173.733 C 262.441 173.653 262.321 173.613 262.167 173.613 L 261.087 173.613 L 261.087 169.353 C 261.087 168.993 261.227 168.626 261.507 168.253 C 261.787 167.873 262.181 167.563 262.687 167.323 C 263.187 167.076 263.747 166.953 264.367 166.953 C 264.974 166.953 265.434 167.126 265.747 167.473 C 266.061 167.813 266.217 168.293 266.217 168.913 Z" transform="matrix(1.8202250003814697, 0, 0, 1.8856139183044434, -397.0367736816406, -253.1541290283203)" style="fill: rgb(51, 51, 51); white-space: pre;"/>
</svg>