<?xml version="1.0" encoding="utf-8"?>
<svg viewBox="0 2 140 80" xmlns="http://www.w3.org/2000/svg">
  <g id="frame" transform="matrix(1.666338, 0, 0, 1.796511, 19.215399, -6.337881)" style="">
    <rect class="cls-1" height="32" width="32" style="fill: none;"/>
  </g>
  <path d="M 220.77 170.283 C 220.77 171.176 220.96 171.95 221.34 172.603 C 221.72 173.256 222.26 173.756 222.96 174.103 C 223.66 174.45 224.463 174.623 225.37 174.623 C 225.95 174.623 226.567 174.513 227.22 174.293 C 227.873 174.073 228.377 173.766 228.73 173.373 C 228.857 173.24 228.92 173.096 228.92 172.943 C 228.92 172.803 228.887 172.696 228.82 172.623 C 228.747 172.556 228.66 172.523 228.56 172.523 C 228.393 172.523 228.253 172.58 228.14 172.693 C 227.713 173.08 227.29 173.36 226.87 173.533 C 226.443 173.7 225.917 173.783 225.29 173.783 C 224.21 173.783 223.35 173.49 222.71 172.903 C 222.07 172.31 221.75 171.436 221.75 170.283 C 221.75 169.59 221.9 168.996 222.2 168.503 C 222.5 168.003 222.937 167.62 223.51 167.353 C 224.083 167.086 224.767 166.953 225.56 166.953 C 225.927 166.953 226.28 166.99 226.62 167.063 C 226.953 167.13 227.293 167.25 227.64 167.423 L 227.69 167.843 C 227.757 168.443 227.827 168.866 227.9 169.113 C 227.98 169.366 228.117 169.493 228.31 169.493 C 228.51 169.493 228.663 169.416 228.77 169.263 C 228.877 169.116 228.93 168.92 228.93 168.673 C 228.93 167.786 228.61 167.14 227.97 166.733 C 227.337 166.32 226.48 166.113 225.4 166.113 C 224.547 166.113 223.767 166.283 223.06 166.623 C 222.36 166.956 221.803 167.436 221.39 168.063 C 220.977 168.696 220.77 169.436 220.77 170.283 ZM 241.032 168.183 C 241.032 168.356 241.082 168.49 241.182 168.583 C 241.276 168.676 241.389 168.723 241.522 168.723 C 241.656 168.723 241.772 168.673 241.872 168.573 C 241.972 168.473 242.022 168.33 242.022 168.143 L 242.022 166.733 C 242.022 166.526 241.952 166.373 241.812 166.273 C 241.679 166.166 241.449 166.113 241.122 166.113 C 239.222 166.113 237.882 166.713 237.102 167.913 L 237.062 166.843 C 237.049 166.65 237.019 166.506 236.972 166.413 C 236.919 166.32 236.819 166.273 236.672 166.273 C 236.599 166.273 236.519 166.283 236.432 166.303 L 234.682 166.653 C 234.582 166.673 234.506 166.72 234.452 166.793 C 234.399 166.86 234.372 166.943 234.372 167.043 C 234.372 167.15 234.409 167.243 234.482 167.323 C 234.549 167.41 234.649 167.453 234.782 167.453 C 234.836 167.453 234.876 167.45 234.902 167.443 L 236.152 167.183 L 236.152 173.613 L 234.282 173.613 C 234.142 173.613 234.036 173.653 233.962 173.733 C 233.889 173.82 233.852 173.916 233.852 174.023 C 233.852 174.136 233.892 174.236 233.972 174.323 C 234.052 174.41 234.169 174.453 234.322 174.453 L 240.572 174.453 C 240.706 174.453 240.809 174.41 240.882 174.323 C 240.956 174.236 240.992 174.14 240.992 174.033 C 240.992 173.92 240.956 173.82 240.882 173.733 C 240.816 173.653 240.716 173.613 240.582 173.613 L 237.142 173.613 L 237.142 169.063 C 237.416 168.376 237.902 167.853 238.602 167.493 C 239.309 167.133 240.119 166.953 241.032 166.953 L 241.032 168.183 ZM 246.485 170.283 C 246.485 171.176 246.682 171.95 247.075 172.603 C 247.462 173.256 248.005 173.756 248.705 174.103 C 249.405 174.45 250.215 174.623 251.135 174.623 C 251.715 174.623 252.338 174.513 253.005 174.293 C 253.672 174.066 254.182 173.76 254.535 173.373 C 254.662 173.24 254.725 173.096 254.725 172.943 C 254.725 172.823 254.685 172.716 254.605 172.623 C 254.532 172.536 254.435 172.493 254.315 172.493 C 254.175 172.493 254.035 172.553 253.895 172.673 C 253.502 173.04 253.058 173.316 252.565 173.503 C 252.072 173.69 251.568 173.783 251.055 173.783 C 250.002 173.783 249.148 173.503 248.495 172.943 C 247.848 172.383 247.508 171.563 247.475 170.483 L 253.925 170.433 C 254.165 170.433 254.355 170.35 254.495 170.183 C 254.642 170.016 254.715 169.803 254.715 169.543 C 254.715 168.81 254.555 168.186 254.235 167.673 C 253.915 167.16 253.478 166.773 252.925 166.513 C 252.365 166.246 251.732 166.113 251.025 166.113 C 250.192 166.113 249.428 166.283 248.735 166.623 C 248.048 166.956 247.502 167.436 247.095 168.063 C 246.688 168.696 246.485 169.436 246.485 170.283 Z M 251.045 166.953 C 252.112 166.953 252.832 167.223 253.205 167.763 C 253.578 168.303 253.792 168.943 253.845 169.683 L 247.505 169.723 C 247.625 168.85 247.995 168.17 248.615 167.683 C 249.235 167.196 250.045 166.953 251.045 166.953 ZM 266.397 174.483 L 266.467 174.483 L 268.377 174.283 C 268.504 174.25 268.601 174.193 268.667 174.113 C 268.734 174.026 268.767 173.93 268.767 173.823 C 268.767 173.723 268.734 173.64 268.667 173.573 C 268.601 173.506 268.497 173.473 268.357 173.473 L 268.297 173.473 L 266.777 173.583 L 266.777 162.753 C 266.777 162.486 266.637 162.353 266.357 162.353 C 266.331 162.353 266.264 162.36 266.157 162.373 L 264.217 162.573 C 264.097 162.593 264.011 162.643 263.957 162.723 C 263.904 162.803 263.877 162.893 263.877 162.993 C 263.877 163.1 263.914 163.19 263.987 163.263 C 264.067 163.343 264.164 163.383 264.277 163.383 C 264.317 163.383 264.354 163.38 264.387 163.373 C 264.421 163.366 264.451 163.36 264.477 163.353 L 265.797 163.263 L 265.797 167.203 C 265.384 166.85 264.951 166.58 264.497 166.393 C 264.044 166.206 263.504 166.113 262.877 166.113 C 262.097 166.113 261.414 166.296 260.827 166.663 C 260.241 167.03 259.791 167.536 259.477 168.183 C 259.164 168.83 259.007 169.56 259.007 170.373 C 259.007 171.2 259.164 171.933 259.477 172.573 C 259.791 173.22 260.241 173.723 260.827 174.083 C 261.414 174.443 262.097 174.623 262.877 174.623 C 263.511 174.623 264.091 174.506 264.617 174.273 C 265.151 174.04 265.574 173.733 265.887 173.353 L 265.917 173.973 C 265.924 174.14 265.971 174.266 266.057 174.353 C 266.151 174.44 266.264 174.483 266.397 174.483 Z M 262.947 166.953 C 264.141 166.953 265.091 167.396 265.797 168.283 L 265.797 172.303 C 265.104 173.29 264.141 173.783 262.907 173.783 C 262.287 173.783 261.761 173.63 261.327 173.323 C 260.887 173.016 260.554 172.603 260.327 172.083 C 260.101 171.563 259.987 170.993 259.987 170.373 C 259.987 169.753 260.101 169.183 260.327 168.663 C 260.554 168.143 260.891 167.73 261.337 167.423 C 261.777 167.11 262.314 166.953 262.947 166.953 ZM 275.98 163.293 C 275.98 163.526 276.063 163.726 276.23 163.893 C 276.396 164.053 276.6 164.133 276.84 164.133 C 277.073 164.133 277.273 164.053 277.44 163.893 C 277.6 163.726 277.68 163.526 277.68 163.293 C 277.68 163.053 277.596 162.853 277.43 162.693 C 277.263 162.526 277.066 162.443 276.84 162.443 C 276.606 162.443 276.406 162.526 276.24 162.693 C 276.066 162.853 275.98 163.053 275.98 163.293 Z M 280.93 174.453 C 281.056 174.453 281.156 174.413 281.23 174.333 C 281.31 174.246 281.35 174.146 281.35 174.033 C 281.35 173.926 281.313 173.83 281.24 173.743 C 281.166 173.656 281.066 173.613 280.94 173.613 L 277.52 173.613 L 277.52 166.463 C 277.52 166.363 277.486 166.283 277.42 166.223 C 277.353 166.163 277.263 166.133 277.15 166.133 C 277.096 166.133 277.06 166.136 277.04 166.143 L 272.96 166.713 C 272.853 166.726 272.77 166.773 272.71 166.853 C 272.656 166.926 272.63 167.016 272.63 167.123 C 272.63 167.236 272.666 167.336 272.74 167.423 C 272.82 167.51 272.923 167.553 273.05 167.553 L 273.12 167.543 L 276.54 167.083 L 276.54 173.613 L 272.72 173.613 C 272.586 173.613 272.483 173.653 272.41 173.733 C 272.33 173.813 272.29 173.906 272.29 174.013 C 272.29 174.126 272.333 174.23 272.42 174.323 C 272.5 174.41 272.613 174.453 272.76 174.453 L 280.93 174.453 ZM 287.632 167.353 L 291.432 167.353 C 291.565 167.353 291.665 167.313 291.732 167.233 C 291.805 167.153 291.842 167.053 291.842 166.933 C 291.842 166.826 291.805 166.73 291.732 166.643 C 291.665 166.556 291.569 166.513 291.442 166.513 L 287.632 166.513 L 287.632 164.063 C 287.632 163.916 287.609 163.803 287.562 163.723 C 287.509 163.643 287.409 163.603 287.262 163.603 C 287.062 163.603 286.919 163.69 286.832 163.863 C 286.752 164.036 286.699 164.31 286.672 164.683 C 286.652 165.05 286.642 165.66 286.642 166.513 L 285.142 166.513 C 285.002 166.513 284.895 166.553 284.822 166.633 C 284.749 166.713 284.712 166.806 284.712 166.913 C 284.712 167.033 284.752 167.136 284.832 167.223 C 284.912 167.31 285.029 167.353 285.182 167.353 L 286.642 167.353 L 286.642 172.723 C 286.642 173.056 286.765 173.37 287.012 173.663 C 287.252 173.956 287.575 174.19 287.982 174.363 C 288.389 174.536 288.825 174.623 289.292 174.623 C 289.752 174.623 290.212 174.573 290.672 174.473 C 291.139 174.366 291.549 174.23 291.902 174.063 C 292.255 173.89 292.502 173.72 292.642 173.553 C 292.675 173.506 292.692 173.453 292.692 173.393 C 292.692 173.28 292.645 173.166 292.552 173.053 C 292.459 172.933 292.362 172.873 292.262 172.873 C 292.215 172.873 292.179 172.886 292.152 172.913 C 291.825 173.16 291.402 173.366 290.882 173.533 C 290.369 173.7 289.872 173.783 289.392 173.783 C 288.865 173.783 288.442 173.67 288.122 173.443 C 287.795 173.216 287.632 172.856 287.632 172.363 L 287.632 167.353 Z" transform="matrix(1.8202250003814697, 0, 0, 1.8856139183044434, -397.0367736816406, -253.1541290283203)" style="fill: rgb(51, 51, 51); stroke-miterlimit: 3; stroke-width: 2.15876px; white-space: pre;"/>
  <rect fill="none" height="36" rx="2" ry="2" stroke="#000" stroke-linecap="round" stroke-linejoin="round" width="56" x="42.054" y="7.729" style="stroke-width: 5px;"/>
  <line fill="none" stroke="#000" stroke-linecap="round" stroke-linejoin="round" x1="42.054" x2="98.407" y1="21.273" y2="21.273" style="stroke-width: 4px;"/>
</svg>